<svg width="1440" height="1165" viewBox="0 0 1440 1165" fill="none" xmlns="http://www.w3.org/2000/svg">
<mask id="mask0_1_198" style="mask-type:alpha" maskUnits="userSpaceOnUse" x="0" y="0" width="1440" height="1165">
<rect width="1440" height="1165" fill="#D9D9D9"/>
</mask>
<g mask="url(#mask0_1_198)">
<g filter="url(#filter0_f_1_198)">
<ellipse cx="721.8" cy="692.5" rx="495" ry="412.5" fill="#7CBDB3"/>
</g>
<g filter="url(#filter1_f_1_198)">
<ellipse cx="721.8" cy="692.5" rx="341.4" ry="284.5" fill="#7CBDB3"/>
</g>
<g opacity="0.3">
<path opacity="0.1" d="M1338.7 711C1338.7 995.621 1061.79 1226.5 720 1226.5C378.212 1226.5 101.3 995.621 101.3 711C101.3 426.379 378.212 195.5 720 195.5C1061.79 195.5 1338.7 426.379 1338.7 711Z" stroke="white"/>
<path opacity="0.15" d="M1199.79 705.008C1199.82 706.337 1199.83 707.668 1199.84 709L1199.34 709.003C1199.35 709.668 1199.35 710.334 1199.35 711C1199.35 711.666 1199.35 712.332 1199.34 712.997L1199.84 713C1199.83 714.333 1199.82 715.663 1199.79 716.993L1199.29 716.984C1199.27 718.311 1199.24 719.637 1199.2 720.961L1199.7 720.976C1199.66 722.302 1199.62 723.627 1199.56 724.95L1199.06 724.929C1199.01 726.25 1198.94 727.569 1198.88 728.887L1199.37 728.913C1199.3 730.237 1199.23 731.559 1199.14 732.88L1198.64 732.847C1198.56 734.174 1198.46 735.499 1198.36 736.823L1198.86 736.861C1198.76 738.186 1198.65 739.51 1198.53 740.832L1198.03 740.788C1197.92 742.108 1197.79 743.426 1197.66 744.742L1198.16 744.792C1198.03 746.11 1197.89 747.427 1197.74 748.741L1197.24 748.685C1197.09 750 1196.94 751.313 1196.78 752.624L1197.27 752.685C1197.11 754.006 1196.94 755.324 1196.76 756.641L1196.26 756.573C1196.08 757.888 1195.89 759.201 1195.7 760.511L1196.19 760.585C1196 761.897 1195.8 763.208 1195.59 764.517L1195.09 764.438C1194.88 765.744 1194.67 767.049 1194.44 768.352L1194.93 768.437C1194.71 769.742 1194.48 771.046 1194.24 772.347L1193.74 772.256C1193.5 773.562 1193.25 774.865 1193 776.166L1193.49 776.263C1193.23 777.566 1192.97 778.867 1192.7 780.166L1192.21 780.063C1191.93 781.36 1191.66 782.655 1191.37 783.947L1191.86 784.056C1191.57 785.35 1191.28 786.642 1190.97 787.932L1190.49 787.819C1190.19 789.107 1189.88 790.393 1189.56 791.677L1190.05 791.797C1189.73 793.086 1189.4 794.374 1189.07 795.659L1188.59 795.534C1188.26 796.817 1187.92 798.098 1187.57 799.377L1188.05 799.508C1187.71 800.788 1187.35 802.067 1186.99 803.342L1186.51 803.206C1186.15 804.48 1185.78 805.752 1185.4 807.021L1185.88 807.163C1185.5 808.434 1185.12 809.703 1184.73 810.969L1184.25 810.821C1183.86 812.088 1183.46 813.351 1183.06 814.613L1183.53 814.766C1183.13 816.029 1182.71 817.289 1182.29 818.548L1181.82 818.389C1181.4 819.645 1180.97 820.899 1180.54 822.151L1181.01 822.315C1180.57 823.568 1180.13 824.818 1179.68 826.066L1179.21 825.897C1178.76 827.143 1178.31 828.387 1177.85 829.628L1178.31 829.803C1177.85 831.045 1177.38 832.285 1176.9 833.522L1176.44 833.342C1175.96 834.578 1175.48 835.811 1174.99 837.041L1175.45 837.226C1174.96 838.458 1174.46 839.687 1173.95 840.914L1173.49 840.724C1172.99 841.948 1172.48 843.171 1171.96 844.39L1172.42 844.586C1171.9 845.807 1171.37 847.025 1170.84 848.241L1170.38 848.04C1169.85 849.252 1169.31 850.462 1168.77 851.668L1169.22 851.874C1168.68 853.082 1168.12 854.287 1167.56 855.489L1167.11 855.279C1166.55 856.479 1165.99 857.677 1165.42 858.872L1165.87 859.088C1165.29 860.285 1164.71 861.479 1164.13 862.67L1163.68 862.449C1163.09 863.638 1162.5 864.825 1161.9 866.008L1162.35 866.234C1161.75 867.416 1161.15 868.595 1160.53 869.771L1160.09 869.541C1159.48 870.715 1158.86 871.886 1158.24 873.054L1158.68 873.29C1158.06 874.459 1157.43 875.626 1156.79 876.79L1156.35 876.55C1155.72 877.712 1155.07 878.872 1154.42 880.028L1154.86 880.273C1154.21 881.431 1153.55 882.585 1152.89 883.737L1152.46 883.488C1151.8 884.634 1151.13 885.777 1150.46 886.917L1150.89 887.171C1150.22 888.312 1149.54 889.45 1148.85 890.584L1148.42 890.326C1147.74 891.459 1147.05 892.589 1146.35 893.716L1146.78 893.979C1146.08 895.107 1145.37 896.232 1144.66 897.355L1144.24 897.087C1143.53 898.208 1142.81 899.325 1142.09 900.439L1142.51 900.711C1141.79 901.823 1141.07 902.931 1140.33 904.036L1139.92 903.76C1139.19 904.862 1138.45 905.961 1137.71 907.057L1138.12 907.337C1137.38 908.434 1136.63 909.528 1135.87 910.619L1135.46 910.334C1135.13 910.807 1134.81 911.278 1134.48 911.749C1134.05 912.365 1133.61 912.979 1133.18 913.592L1133.59 913.881C1132.82 914.965 1132.05 916.046 1131.27 917.124L1130.86 916.831C1130.09 917.903 1129.31 918.972 1128.52 920.037L1128.92 920.334C1128.13 921.398 1127.34 922.46 1126.54 923.517L1126.15 923.216C1125.35 924.273 1124.55 925.326 1123.74 926.375L1124.13 926.681C1123.32 927.732 1122.51 928.779 1121.69 929.823L1121.3 929.515C1120.48 930.557 1119.65 931.597 1118.82 932.633L1119.21 932.946C1118.38 933.98 1117.54 935.011 1116.7 936.038L1116.32 935.722C1115.48 936.744 1114.64 937.763 1113.79 938.778L1114.17 939.099C1113.32 940.115 1112.47 941.129 1111.61 942.139L1111.23 941.814C1110.37 942.823 1109.51 943.828 1108.64 944.83L1109.01 945.158C1108.14 946.161 1107.27 947.16 1106.39 948.156L1106.01 947.824C1105.13 948.817 1104.25 949.806 1103.36 950.791L1103.73 951.126C1102.84 952.107 1101.95 953.085 1101.06 954.06L1100.69 953.721C1099.79 954.695 1098.89 955.664 1097.99 956.63L1098.35 956.972C1097.45 957.94 1096.53 958.903 1095.62 959.864L1095.25 959.518C1094.34 960.477 1093.42 961.433 1092.49 962.384L1092.85 962.733C1091.92 963.685 1090.99 964.634 1090.05 965.579L1089.7 965.227C1088.77 966.164 1087.83 967.098 1086.89 968.028L1087.25 968.383C1086.31 969.314 1085.36 970.241 1084.41 971.165L1084.06 970.806C1083.11 971.729 1082.16 972.648 1081.2 973.563L1081.54 973.925C1080.58 974.841 1079.62 975.754 1078.65 976.663L1078.31 976.298C1077.34 977.206 1076.36 978.11 1075.38 979.011L1075.72 979.379C1074.75 980.274 1073.77 981.166 1072.79 982.054L1072.45 981.683C1071.47 982.568 1070.49 983.45 1069.5 984.329L1069.83 984.703C1068.84 985.582 1067.84 986.457 1066.84 987.329L1066.51 986.952C1065.51 987.823 1064.51 988.69 1063.5 989.553L1063.83 989.933C1062.82 990.797 1061.8 991.657 1060.78 992.514L1060.46 992.131C1059.45 992.983 1058.43 993.831 1057.41 994.675L1057.73 995.061C1056.71 995.902 1055.68 996.74 1054.66 997.574L1054.34 997.186C1053.31 998.019 1052.28 998.848 1051.25 999.674L1051.56 1000.06C1050.52 1000.89 1049.48 1001.71 1048.43 1002.53L1048.12 1002.14C1047.08 1002.96 1046.03 1003.77 1044.98 1004.58L1045.28 1004.98C1044.23 1005.79 1043.17 1006.59 1042.11 1007.39L1041.81 1007C1040.75 1007.79 1039.7 1008.58 1038.63 1009.37L1038.93 1009.77C1037.87 1010.56 1036.8 1011.34 1035.73 1012.12L1035.44 1011.72C1034.37 1012.5 1033.29 1013.28 1032.21 1014.05L1032.51 1014.45C1031.43 1015.23 1030.34 1016 1029.25 1016.76L1028.97 1016.35C1027.88 1017.12 1026.79 1017.88 1025.69 1018.63L1025.98 1019.04C1024.89 1019.79 1023.8 1020.54 1022.7 1021.29L1022.42 1020.87C1021.33 1021.61 1020.23 1022.35 1019.13 1023.08L1019.41 1023.5C1018.3 1024.24 1017.2 1024.97 1016.09 1025.69L1015.81 1025.27C1014.71 1026 1013.59 1026.72 1012.48 1027.44L1012.75 1027.86C1011.63 1028.58 1010.51 1029.29 1009.38 1030L1009.11 1029.58C1007.99 1030.29 1006.87 1030.99 1005.74 1031.69L1006 1032.11C1004.88 1032.81 1003.75 1033.5 1002.62 1034.19L1002.36 1033.76C1001.23 1034.45 1000.1 1035.13 998.963 1035.81L999.219 1036.24C998.081 1036.92 996.939 1037.6 995.794 1038.27L995.541 1037.84C995.098 1038.1 994.654 1038.36 994.21 1038.61C993.507 1039.02 992.803 1039.43 992.097 1039.84L992.346 1040.27C991.194 1040.93 990.037 1041.59 988.877 1042.25L988.631 1041.81C987.481 1042.46 986.328 1043.11 985.171 1043.75L985.413 1044.19C984.257 1044.83 983.097 1045.46 981.933 1046.1L981.694 1045.66C980.532 1046.29 979.366 1046.92 978.197 1047.54L978.432 1047.98C977.262 1048.61 976.088 1049.23 974.911 1049.84L974.679 1049.4C973.503 1050.02 972.323 1050.63 971.14 1051.24L971.369 1051.68C970.188 1052.29 969.003 1052.89 967.816 1053.49L967.591 1053.04C966.412 1053.64 965.23 1054.22 964.045 1054.81L964.266 1055.26C963.08 1055.84 961.89 1056.43 960.698 1057L960.48 1056.55C959.288 1057.13 958.093 1057.7 956.895 1058.27L957.109 1058.72C955.91 1059.29 954.707 1059.86 953.501 1060.42L953.29 1059.96C952.086 1060.52 950.878 1061.08 949.667 1061.63L949.874 1062.09C948.67 1062.64 947.462 1063.18 946.252 1063.72L946.048 1063.26C944.842 1063.8 943.633 1064.34 942.422 1064.87L942.622 1065.33C941.409 1065.86 940.193 1066.38 938.974 1066.9L938.777 1066.44C937.559 1066.97 936.338 1067.48 935.114 1068L935.307 1068.46C934.082 1068.97 932.854 1069.48 931.622 1069.98L931.433 1069.52C930.203 1070.03 928.971 1070.53 927.735 1071.02L927.921 1071.49C926.696 1071.98 925.468 1072.47 924.237 1072.95L924.054 1072.48C922.824 1072.97 921.592 1073.44 920.356 1073.92L920.536 1074.39C919.299 1074.86 918.059 1075.33 916.817 1075.8L916.641 1075.33C915.4 1075.79 914.156 1076.26 912.91 1076.71L913.082 1077.18C911.834 1077.64 910.583 1078.09 909.33 1078.54L909.161 1078.07C907.913 1078.52 906.662 1078.96 905.408 1079.4L905.573 1079.87C904.326 1080.31 903.077 1080.74 901.825 1081.17L901.663 1080.69C900.412 1081.12 899.159 1081.54 897.903 1081.96L898.061 1082.44C896.804 1082.86 895.544 1083.27 894.281 1083.68L894.127 1083.21C892.865 1083.62 891.602 1084.02 890.335 1084.42L890.486 1084.9C889.218 1085.3 887.948 1085.7 886.675 1086.09L886.528 1085.61C885.263 1086 883.996 1086.39 882.727 1086.77L882.87 1087.25C881.605 1087.63 880.338 1088.01 879.067 1088.38L878.927 1087.9C877.658 1088.27 876.387 1088.64 875.113 1089L875.25 1089.48C873.975 1089.84 872.697 1090.2 871.417 1090.56L871.284 1090.07C870.005 1090.43 868.724 1090.78 867.441 1091.12L867.571 1091.61C866.286 1091.95 864.999 1092.29 863.71 1092.63L863.584 1092.15C862.305 1092.48 861.024 1092.81 859.741 1093.14L859.864 1093.62C858.583 1093.94 857.3 1094.27 856.014 1094.58L855.895 1094.1C854.611 1094.41 853.324 1094.72 852.035 1095.03L852.151 1095.52C850.861 1095.82 849.569 1096.13 848.275 1096.43L848.162 1095.94C846.869 1096.24 845.574 1096.53 844.276 1096.82L844.385 1097.31C843.086 1097.6 841.785 1097.88 840.482 1098.16L840.377 1097.67C839.087 1097.95 837.794 1098.23 836.499 1098.5L836.601 1098.98C835.307 1099.25 834.011 1099.52 832.713 1099.78L832.615 1099.29C831.318 1099.55 830.019 1099.8 828.718 1100.06L828.813 1100.55C827.511 1100.8 826.207 1101.05 824.9 1101.29L824.809 1100.8C823.504 1101.04 822.197 1101.28 820.888 1101.51L820.976 1102C819.666 1102.24 818.353 1102.47 817.039 1102.69L816.955 1102.2C815.655 1102.42 814.352 1102.64 813.048 1102.85L813.129 1103.35C811.825 1103.56 810.519 1103.77 809.211 1103.97L809.133 1103.48C807.826 1103.69 806.518 1103.89 805.207 1104.08L805.281 1104.58C803.969 1104.77 802.656 1104.96 801.34 1105.15L801.27 1104.66C799.956 1104.84 798.64 1105.03 797.322 1105.2L797.389 1105.7C796.07 1105.88 794.749 1106.05 793.426 1106.22L793.363 1105.72C792.054 1105.89 790.744 1106.06 789.432 1106.21L789.492 1106.71C788.18 1106.87 786.866 1107.02 785.551 1107.17L785.495 1106.68C784.18 1106.83 782.865 1106.97 781.547 1107.11L781.6 1107.61C780.281 1107.75 778.961 1107.89 777.639 1108.02L777.589 1107.52C776.269 1107.65 774.946 1107.78 773.622 1107.9L773.668 1108.4C772.343 1108.52 771.016 1108.64 769.687 1108.75L769.645 1108.26C768.329 1108.37 767.013 1108.48 765.695 1108.58L765.734 1109.08C764.417 1109.18 763.098 1109.28 761.778 1109.38L761.742 1108.88C760.423 1108.97 759.103 1109.06 757.781 1109.15L757.813 1109.65C756.49 1109.74 755.165 1109.82 753.839 1109.89L753.81 1109.39C752.485 1109.47 751.159 1109.54 749.831 1109.61L749.857 1110.11C748.527 1110.18 747.197 1110.24 745.865 1110.3L745.843 1109.8C744.523 1109.86 743.201 1109.91 741.878 1109.96L741.897 1110.46C740.577 1110.51 739.256 1110.56 737.934 1110.6L737.918 1110.1C736.597 1110.14 735.274 1110.18 733.951 1110.21L733.962 1110.71C732.637 1110.74 731.311 1110.77 729.983 1110.79L729.975 1110.29C728.648 1110.31 727.32 1110.33 725.991 1110.34L725.996 1110.84C724.665 1110.86 723.334 1110.86 722.001 1110.87L721.999 1110.37C721.333 1110.37 720.667 1110.37 720 1110.37C719.333 1110.37 718.667 1110.37 718.001 1110.37L717.999 1110.87C716.666 1110.86 715.335 1110.86 714.004 1110.84L714.009 1110.34C712.68 1110.33 711.352 1110.31 710.025 1110.29L710.017 1110.79C708.689 1110.77 707.363 1110.74 706.038 1110.71L706.049 1110.21C704.725 1110.18 703.403 1110.14 702.082 1110.1L702.066 1110.6C700.744 1110.56 699.423 1110.51 698.103 1110.46L698.122 1109.96C696.799 1109.91 695.477 1109.86 694.157 1109.8L694.135 1110.3C692.803 1110.24 691.472 1110.18 690.143 1110.11L690.169 1109.61C688.841 1109.54 687.514 1109.47 686.189 1109.39L686.16 1109.89C684.834 1109.82 683.51 1109.74 682.187 1109.65L682.219 1109.15C680.897 1109.06 679.576 1108.97 678.257 1108.88L678.222 1109.38C676.901 1109.28 675.583 1109.18 674.266 1109.08L674.305 1108.58C672.987 1108.48 671.67 1108.37 670.355 1108.26L670.312 1108.75C668.984 1108.64 667.657 1108.52 666.332 1108.4L666.378 1107.9C665.054 1107.78 663.731 1107.65 662.41 1107.52L662.361 1108.02C661.039 1107.89 659.718 1107.75 658.4 1107.61L658.453 1107.11C657.135 1106.97 655.819 1106.83 654.505 1106.68L654.449 1107.17C653.133 1107.02 651.82 1106.87 650.508 1106.71L650.568 1106.21C649.256 1106.05 647.945 1105.89 646.637 1105.72L646.573 1106.22C645.251 1106.05 643.93 1105.88 642.611 1105.7L642.678 1105.2C641.36 1105.03 640.044 1104.84 638.73 1104.66L638.659 1105.15C637.344 1104.96 636.03 1104.77 634.719 1104.58L634.793 1104.08C633.482 1103.89 632.173 1103.69 630.866 1103.48L630.789 1103.97C629.481 1103.77 628.175 1103.56 626.871 1103.35L626.952 1102.85C625.647 1102.64 624.345 1102.42 623.045 1102.2L622.96 1102.69C621.646 1102.47 620.334 1102.24 619.024 1102L619.112 1101.51C617.803 1101.28 616.496 1101.04 615.191 1100.8L615.099 1101.29C613.793 1101.05 612.489 1100.8 611.187 1100.55L611.282 1100.06C609.981 1099.8 608.682 1099.55 607.385 1099.29L607.286 1099.78C605.988 1099.52 604.692 1099.25 603.398 1098.98L603.5 1098.5C602.905 1098.37 602.311 1098.25 601.717 1098.12C601.018 1097.97 600.32 1097.82 599.622 1097.67L599.517 1098.16C598.214 1097.88 596.913 1097.6 595.614 1097.31L595.723 1096.82C594.426 1096.53 593.13 1096.24 591.837 1095.94L591.725 1096.42C590.431 1096.13 589.138 1095.82 587.848 1095.52L587.964 1095.03C586.675 1094.72 585.389 1094.41 584.105 1094.1L583.985 1094.58C582.7 1094.27 581.417 1093.94 580.136 1093.62L580.258 1093.14C578.975 1092.81 577.694 1092.48 576.416 1092.15L576.289 1092.63C575 1092.29 573.713 1091.95 572.429 1091.61L572.558 1091.12C571.275 1090.78 569.994 1090.43 568.715 1090.07L568.582 1090.56C567.302 1090.2 566.025 1089.84 564.75 1089.48L564.887 1089C563.613 1088.64 562.341 1088.27 561.072 1087.9L560.932 1088.38C559.662 1088.01 558.394 1087.63 557.129 1087.25L557.273 1086.77C556.003 1086.39 554.736 1086 553.472 1085.61L553.324 1086.09C552.051 1085.7 550.781 1085.3 549.513 1084.9L549.664 1084.42C548.398 1084.02 547.134 1083.61 545.873 1083.21L545.718 1083.68C544.456 1083.27 543.196 1082.86 541.938 1082.44L542.096 1081.96C540.84 1081.54 539.587 1081.12 538.336 1080.69L538.174 1081.17C536.923 1080.74 535.673 1080.31 534.426 1079.87L534.592 1079.4C533.338 1078.96 532.087 1078.52 530.838 1078.07L530.67 1078.54C529.416 1078.09 528.166 1077.64 526.918 1077.18L527.09 1076.71C525.843 1076.26 524.599 1075.79 523.358 1075.33L523.182 1075.8C521.94 1075.33 520.701 1074.86 519.464 1074.38L519.643 1073.92C518.408 1073.44 517.175 1072.97 515.945 1072.48L515.763 1072.95C514.532 1072.46 513.303 1071.98 512.078 1071.49L512.264 1071.02C511.029 1070.53 509.796 1070.03 508.567 1069.52L508.377 1069.98C507.146 1069.48 505.918 1068.97 504.692 1068.46L504.886 1068C503.662 1067.48 502.441 1066.97 501.223 1066.44L501.026 1066.9C499.807 1066.38 498.591 1065.86 497.378 1065.32L497.578 1064.87C496.366 1064.34 495.157 1063.8 493.951 1063.26L493.748 1063.72C492.537 1063.18 491.33 1062.64 490.125 1062.09L490.333 1061.63C489.122 1061.08 487.914 1060.52 486.709 1059.96L486.498 1060.42C485.292 1059.86 484.09 1059.29 482.89 1058.72L483.105 1058.27C481.907 1057.7 480.712 1057.13 479.52 1056.55L479.302 1057C478.109 1056.43 476.919 1055.84 475.733 1055.26L475.955 1054.81C474.769 1054.22 473.587 1053.63 472.409 1053.04L472.184 1053.49C470.996 1052.89 469.812 1052.29 468.631 1051.68L468.859 1051.24C467.676 1050.63 466.497 1050.02 465.321 1049.4L465.089 1049.84C463.911 1049.23 462.738 1048.61 461.567 1047.98L461.803 1047.54C460.633 1046.92 459.468 1046.29 458.305 1045.66L458.066 1046.1C456.903 1045.46 455.743 1044.83 454.587 1044.19L454.829 1043.75C453.672 1043.11 452.518 1042.46 451.369 1041.81L451.123 1042.25C449.963 1041.59 448.806 1040.93 447.653 1040.27L447.903 1039.84C446.751 1039.17 445.603 1038.51 444.459 1037.84L444.206 1038.27C443.061 1037.6 441.919 1036.92 440.781 1036.24L441.037 1035.81C439.9 1035.13 438.767 1034.45 437.638 1033.76L437.378 1034.19C436.247 1033.5 435.12 1032.81 433.997 1032.11L434.261 1031.69C433.132 1030.99 432.007 1030.29 430.886 1029.58L430.619 1030C429.493 1029.29 428.371 1028.58 427.253 1027.86L427.523 1027.44C426.407 1026.72 425.294 1026 424.185 1025.27L423.911 1025.69C422.801 1024.97 421.695 1024.24 420.593 1023.5L420.87 1023.08C419.769 1022.35 418.672 1021.61 417.579 1020.87L417.298 1021.29C416.201 1020.54 415.109 1019.79 414.021 1019.04L414.305 1018.63C413.21 1017.88 412.119 1017.12 411.032 1016.35L410.745 1016.76C409.657 1016 408.573 1015.23 407.494 1014.45L407.785 1014.05C406.707 1013.28 405.632 1012.5 404.562 1011.72L404.268 1012.12C403.197 1011.34 402.13 1010.56 401.067 1009.77L401.365 1009.37C400.304 1008.58 399.246 1007.79 398.193 1007L397.892 1007.39C396.83 1006.59 395.772 1005.79 394.719 1004.98L395.024 1004.58C393.97 1003.77 392.921 1002.96 391.876 1002.14L391.568 1002.53C390.522 1001.71 389.48 1000.89 388.443 1000.06L388.755 999.673C387.718 998.848 386.687 998.019 385.66 997.185L385.345 997.574C384.316 996.74 383.293 995.902 382.273 995.06L382.592 994.675C381.569 993.831 380.551 992.982 379.538 992.131L379.216 992.513C378.197 991.657 377.183 990.797 376.173 989.932L376.498 989.552C375.49 988.689 374.486 987.822 373.487 986.952L373.158 987.329C372.158 986.457 371.162 985.581 370.171 984.702L370.503 984.328C369.513 983.45 368.528 982.568 367.548 981.682L367.213 982.053C366.23 981.165 365.252 980.274 364.278 979.378L364.617 979.01C363.638 978.11 362.664 977.206 361.695 976.298L361.353 976.663C360.383 975.754 359.417 974.841 358.457 973.925L358.802 973.563C357.843 972.648 356.888 971.729 355.939 970.806L355.59 971.165C354.64 970.241 353.694 969.314 352.754 968.383L353.106 968.027C352.166 967.097 351.232 966.164 350.302 965.227L349.947 965.579C349.01 964.634 348.078 963.685 347.151 962.733L347.509 962.384C346.583 961.432 345.661 960.477 344.745 959.518L344.384 959.863C343.466 958.903 342.554 957.939 341.647 956.972L342.012 956.63C341.106 955.664 340.206 954.694 339.311 953.721L338.943 954.059C338.046 953.085 337.155 952.107 336.269 951.126L336.641 950.791C335.751 949.805 334.867 948.816 333.989 947.824L333.614 948.155C332.733 947.159 331.856 946.16 330.986 945.157L331.363 944.829C330.493 943.828 329.629 942.823 328.77 941.814L328.39 942.138C327.53 941.128 326.675 940.115 325.827 939.098L326.21 938.778C325.363 937.762 324.52 936.743 323.684 935.721L323.297 936.038C322.456 935.01 321.621 933.98 320.791 932.946L321.181 932.633C320.35 931.597 319.525 930.557 318.705 929.514L318.312 929.823C317.491 928.779 316.676 927.731 315.866 926.68L316.262 926.375C315.454 925.325 314.651 924.272 313.854 923.216L313.455 923.517C312.657 922.459 311.865 921.398 311.079 920.334L311.481 920.036C310.694 918.971 309.913 917.902 309.137 916.83L308.732 917.123C307.953 916.045 307.179 914.965 306.412 913.88L306.82 913.592C306.053 912.509 305.293 911.423 304.538 910.334L304.127 910.618C303.372 909.528 302.622 908.434 301.879 907.337L302.293 907.056C301.55 905.96 300.814 904.861 300.083 903.759L299.667 904.036C298.934 902.93 298.208 901.822 297.488 900.711L297.908 900.439C297.186 899.324 296.47 898.207 295.76 897.086L295.338 897.354C294.627 896.232 293.923 895.107 293.225 893.978L293.65 893.715C292.953 892.588 292.262 891.458 291.577 890.325L291.149 890.584C290.464 889.449 289.785 888.311 289.112 887.171L289.542 886.917C288.87 885.776 288.204 884.633 287.544 883.487L287.111 883.736C286.448 882.585 285.791 881.43 285.141 880.272L285.577 880.027C284.928 878.871 284.285 877.712 283.648 876.549L283.21 876.789C282.573 875.625 281.942 874.459 281.318 873.289L281.759 873.053C281.136 871.885 280.519 870.714 279.909 869.54L279.465 869.771C278.854 868.594 278.249 867.415 277.651 866.233L278.098 866.008C277.499 864.824 276.906 863.638 276.321 862.448L275.872 862.669C275.286 861.478 274.706 860.284 274.134 859.087L274.585 858.872C274.013 857.677 273.447 856.479 272.889 855.278L272.435 855.489C271.876 854.286 271.323 853.081 270.778 851.873L271.233 851.667C270.688 850.461 270.15 849.252 269.618 848.04L269.161 848.24C268.627 847.025 268.101 845.806 267.582 844.585L268.042 844.389C267.524 843.17 267.012 841.948 266.507 840.723L266.045 840.913C265.54 839.687 265.041 838.457 264.55 837.225L265.014 837.04C264.524 835.81 264.04 834.577 263.563 833.342L263.097 833.522C262.619 832.284 262.149 831.044 261.686 829.802L262.154 829.627C261.691 828.386 261.236 827.143 260.787 825.896L260.317 826.066C259.867 824.818 259.425 823.567 258.99 822.314L259.463 822.15C259.028 820.899 258.601 819.645 258.181 818.388L257.707 818.547C257.287 817.289 256.873 816.028 256.467 814.765L256.943 814.612C256.537 813.351 256.139 812.087 255.748 810.821L255.27 810.968C254.879 809.702 254.495 808.433 254.119 807.162L254.598 807.02C254.222 805.751 253.853 804.479 253.492 803.205L253.011 803.342C252.649 802.066 252.295 800.788 251.947 799.507L252.43 799.376C252.083 798.098 251.744 796.817 251.412 795.533L250.928 795.659C250.595 794.373 250.27 793.086 249.953 791.796L250.438 791.677C250.122 790.393 249.813 789.107 249.512 787.818L249.025 787.932C248.724 786.642 248.429 785.35 248.143 784.055L248.631 783.947C248.344 782.654 248.066 781.36 247.794 780.063L247.305 780.165C247.033 778.866 246.769 777.565 246.512 776.262L247.003 776.166C246.746 774.864 246.498 773.561 246.256 772.256L245.765 772.347C245.524 771.045 245.291 769.742 245.066 768.436L245.559 768.351C245.334 767.049 245.117 765.744 244.907 764.437L244.413 764.516C244.203 763.208 244.001 761.897 243.806 760.584L244.3 760.511C244.106 759.2 243.919 757.887 243.74 756.573L243.244 756.64C243.065 755.324 242.893 754.005 242.729 752.685L243.225 752.623C243.062 751.312 242.907 750 242.759 748.685L242.262 748.741C242.115 747.426 241.974 746.11 241.842 744.792L242.34 744.742C242.207 743.425 242.083 742.107 241.966 740.787L241.468 740.832C241.351 739.51 241.242 738.186 241.14 736.861L241.639 736.823C241.537 735.499 241.444 734.174 241.358 732.847L240.859 732.879C240.774 731.559 240.696 730.237 240.626 728.913L241.125 728.887C241.055 727.569 240.993 726.25 240.939 724.929L240.439 724.949C240.385 723.626 240.338 722.302 240.299 720.976L240.799 720.961C240.76 719.637 240.729 718.311 240.706 716.984L240.206 716.992C240.182 715.663 240.167 714.332 240.159 713L240.659 712.997C240.655 712.332 240.653 711.666 240.653 711C240.653 710.334 240.655 709.668 240.659 709.003L240.159 709C240.167 707.668 240.182 706.337 240.206 705.007L240.706 705.016C240.729 703.689 240.76 702.363 240.799 701.039L240.299 701.024C240.338 699.698 240.385 698.373 240.439 697.051L240.939 697.071C240.993 695.75 241.055 694.431 241.125 693.113L240.626 693.087C240.696 691.763 240.774 690.441 240.859 689.12L241.358 689.153C241.444 687.826 241.538 686.501 241.639 685.177L241.14 685.139C241.242 683.814 241.351 682.49 241.468 681.168L241.966 681.212C242.083 679.892 242.207 678.574 242.34 677.258L241.842 677.208C241.975 675.89 242.115 674.573 242.262 673.259L242.759 673.315C242.907 672 243.062 670.687 243.225 669.377L242.729 669.315C242.893 667.994 243.065 666.676 243.244 665.359L243.74 665.427C243.919 664.112 244.106 662.8 244.3 661.489L243.806 661.415C244.001 660.103 244.203 658.792 244.413 657.483L244.907 657.563C245.117 656.256 245.334 654.951 245.559 653.648L245.066 653.563C245.291 652.258 245.524 650.954 245.765 649.653L246.256 649.744C246.498 648.439 246.746 647.135 247.003 645.834L246.512 645.737C246.769 644.434 247.033 643.133 247.305 641.835L247.794 641.937C248.066 640.64 248.344 639.345 248.631 638.053L248.143 637.945C248.429 636.65 248.724 635.358 249.025 634.068L249.512 634.181C249.814 632.893 250.122 631.607 250.438 630.323L249.953 630.203C250.271 628.914 250.596 627.626 250.928 626.341L251.412 626.466C251.744 625.183 252.083 623.902 252.43 622.623L251.947 622.492C252.295 621.212 252.649 619.934 253.011 618.658L253.492 618.794C253.854 617.52 254.222 616.249 254.598 614.979L254.119 614.837C254.496 613.566 254.879 612.297 255.27 611.031L255.748 611.179C256.139 609.913 256.538 608.649 256.943 607.387L256.467 607.234C256.873 605.971 257.287 604.711 257.707 603.452L258.182 603.611C258.602 602.355 259.029 601.101 259.463 599.85L258.991 599.686C259.426 598.432 259.868 597.182 260.317 595.934L260.787 596.103C261.236 594.857 261.692 593.613 262.154 592.372L261.686 592.198C262.149 590.955 262.62 589.715 263.097 588.478L263.563 588.658C264.04 587.422 264.524 586.189 265.015 584.959L264.55 584.774C265.042 583.542 265.54 582.313 266.045 581.086L266.508 581.277C267.012 580.052 267.524 578.829 268.043 577.61L267.582 577.414C268.102 576.193 268.628 574.975 269.161 573.759L269.619 573.96C270.15 572.748 270.688 571.539 271.234 570.332L270.778 570.126C271.324 568.918 271.876 567.713 272.436 566.511L272.889 566.722C273.448 565.521 274.013 564.323 274.585 563.128L274.134 562.912C274.707 561.715 275.286 560.521 275.873 559.33L276.321 559.551C276.907 558.362 277.499 557.175 278.098 555.992L277.652 555.766C278.25 554.584 278.854 553.405 279.466 552.229L279.909 552.459C280.519 551.285 281.136 550.114 281.759 548.946L281.318 548.711C281.942 547.541 282.573 546.374 283.21 545.21L283.649 545.45C284.285 544.288 284.928 543.128 285.577 541.972L285.141 541.727C285.791 540.57 286.448 539.415 287.111 538.263L287.544 538.512C288.204 537.366 288.87 536.223 289.543 535.083L289.112 534.829C289.785 533.688 290.464 532.55 291.15 531.416L291.578 531.674C292.262 530.541 292.953 529.411 293.65 528.284L293.225 528.021C293.923 526.893 294.628 525.768 295.338 524.646L295.761 524.913C296.47 523.792 297.186 522.675 297.908 521.561L297.488 521.289C298.208 520.177 298.935 519.069 299.667 517.964L300.084 518.24C300.814 517.138 301.551 516.039 302.293 514.943L301.879 514.663C302.623 513.566 303.372 512.472 304.128 511.381L304.539 511.666C305.293 510.577 306.054 509.491 306.82 508.408L306.412 508.119C307.18 507.035 307.953 505.954 308.733 504.876L309.138 505.169C309.913 504.097 310.694 503.029 311.481 501.963L311.079 501.666C311.866 500.602 312.658 499.541 313.456 498.483L313.855 498.784C314.652 497.727 315.454 496.674 316.263 495.625L315.867 495.32C316.676 494.269 317.491 493.221 318.312 492.177L318.705 492.486C319.525 491.443 320.35 490.403 321.182 489.367L320.792 489.054C321.621 488.02 322.456 486.989 323.297 485.962L323.684 486.279C324.521 485.256 325.363 484.237 326.211 483.222L325.827 482.901C326.676 481.885 327.53 480.871 328.39 479.862L328.771 480.186C329.63 479.177 330.494 478.172 331.364 477.17L330.986 476.842C331.857 475.84 332.733 474.84 333.615 473.844L333.989 474.176C334.868 473.183 335.752 472.194 336.641 471.209L336.27 470.874C337.156 469.893 338.047 468.915 338.943 467.94L339.311 468.279C340.206 467.306 341.107 466.336 342.013 465.37L341.648 465.028C342.555 464.06 343.467 463.097 344.384 462.137L344.746 462.482C345.662 461.523 346.583 460.568 347.51 459.616L347.151 459.267C348.078 458.315 349.01 457.366 349.948 456.421L350.303 456.773C351.232 455.836 352.167 454.902 353.106 453.973L352.754 453.617C353.695 452.686 354.64 451.759 355.591 450.835L355.939 451.194C356.889 450.271 357.843 449.352 358.802 448.437L358.457 448.075C359.418 447.159 360.383 446.246 361.353 445.337L361.695 445.702C362.664 444.794 363.638 443.89 364.617 442.989L364.279 442.621C365.252 441.726 366.23 440.834 367.213 439.946L367.548 440.317C368.529 439.432 369.514 438.55 370.504 437.672L370.172 437.298C371.163 436.418 372.158 435.543 373.159 434.671L373.487 435.048C374.486 434.177 375.49 433.31 376.499 432.447L376.174 432.067C377.183 431.203 378.198 430.343 379.217 429.486L379.538 429.869C380.552 429.017 381.57 428.169 382.592 427.325L382.274 426.939C383.293 426.098 384.317 425.26 385.345 424.426L385.66 424.814C386.687 423.981 387.719 423.152 388.755 422.326L388.443 421.935C389.481 421.109 390.522 420.286 391.568 419.468L391.876 419.861C392.921 419.044 393.971 418.23 395.024 417.42L394.72 417.023C395.773 416.213 396.831 415.408 397.893 414.606L398.194 415.005C399.247 414.209 400.304 413.418 401.366 412.631L401.068 412.229C402.131 411.441 403.197 410.656 404.269 409.876L404.563 410.28C405.633 409.5 406.707 408.724 407.785 407.952L407.494 407.546C408.574 406.773 409.658 406.004 410.745 405.239L411.033 405.648C412.12 404.884 413.21 404.124 414.305 403.368L414.021 402.957C415.11 402.205 416.202 401.458 417.298 400.714L417.579 401.128C418.672 400.386 419.769 399.649 420.87 398.915L420.593 398.499C421.695 397.765 422.801 397.034 423.912 396.308L424.185 396.726C425.294 396.001 426.407 395.279 427.524 394.562L427.254 394.141C428.372 393.423 429.493 392.708 430.619 391.998L430.886 392.421C432.007 391.714 433.132 391.01 434.261 390.311L433.998 389.886C435.121 389.19 436.248 388.498 437.378 387.81L437.638 388.238C438.768 387.551 439.901 386.868 441.038 386.189L440.781 385.759C441.919 385.08 443.061 384.404 444.207 383.732L444.459 384.164C445.604 383.493 446.752 382.826 447.903 382.163L447.654 381.73C448.807 381.066 449.963 380.407 451.123 379.752L451.369 380.187C452.519 379.538 453.673 378.892 454.83 378.251L454.587 377.814C455.744 377.173 456.904 376.536 458.067 375.903L458.306 376.342C459.468 375.71 460.634 375.082 461.803 374.458L461.568 374.017C462.738 373.392 463.912 372.772 465.089 372.155L465.321 372.598C466.497 371.983 467.677 371.371 468.86 370.764L468.631 370.319C469.812 369.712 470.997 369.11 472.185 368.512L472.409 368.959C473.588 368.365 474.77 367.776 475.955 367.191L475.734 366.742C476.92 366.156 478.11 365.575 479.303 364.997L479.52 365.447C480.712 364.87 481.907 364.297 483.105 363.729L482.891 363.277C484.09 362.708 485.293 362.143 486.499 361.582L486.71 362.036C487.914 361.475 489.122 360.919 490.333 360.367L490.126 359.912C491.33 359.364 492.538 358.819 493.748 358.279L493.952 358.735C495.158 358.197 496.367 357.663 497.579 357.133L497.378 356.675C498.591 356.145 499.807 355.619 501.027 355.097L501.223 355.556C502.441 355.035 503.662 354.518 504.886 354.005L504.693 353.543C505.918 353.03 507.146 352.521 508.378 352.016L508.567 352.478C509.797 351.974 511.03 351.474 512.265 350.978L512.079 350.514C513.304 350.022 514.532 349.535 515.763 349.052L515.946 349.517C517.176 349.034 518.408 348.556 519.644 348.082L519.465 347.615C520.701 347.14 521.941 346.67 523.183 346.204L523.359 346.672C524.6 346.206 525.844 345.744 527.091 345.287L526.918 344.818C528.166 344.36 529.417 343.907 530.671 343.458L530.839 343.929C532.087 343.482 533.339 343.039 534.592 342.6L534.427 342.128C535.674 341.692 536.923 341.26 538.175 340.833L538.337 341.306C539.588 340.879 540.841 340.456 542.097 340.037L541.939 339.563C543.197 339.144 544.456 338.73 545.719 338.319L545.873 338.795C547.135 338.385 548.399 337.979 549.665 337.578L549.514 337.101C550.782 336.7 552.052 336.302 553.325 335.91L553.472 336.387C554.737 335.997 556.004 335.611 557.274 335.229L557.13 334.75C558.395 334.37 559.663 333.994 560.933 333.622L561.073 334.102C562.342 333.73 563.614 333.363 564.887 333.001L564.751 332.52C566.026 332.157 567.303 331.798 568.583 331.444L568.716 331.925C569.995 331.571 571.276 331.222 572.559 330.876L572.429 330.394C573.714 330.048 575.001 329.707 576.29 329.37L576.417 329.854C577.695 329.52 578.976 329.19 580.259 328.865L580.136 328.38C581.417 328.055 582.701 327.735 583.986 327.419L584.105 327.904C585.39 327.589 586.676 327.277 587.965 326.97L587.849 326.484C589.139 326.176 590.431 325.874 591.726 325.575L591.838 326.062C593.131 325.764 594.426 325.47 595.724 325.181L595.615 324.693C596.914 324.403 598.215 324.118 599.518 323.837L599.623 324.326C600.914 324.048 602.206 323.774 603.501 323.505L603.399 323.015C604.693 322.746 605.989 322.481 607.287 322.221L607.385 322.711C608.682 322.451 609.981 322.195 611.282 321.944L611.187 321.453C612.489 321.201 613.794 320.954 615.1 320.711L615.191 321.203C616.496 320.96 617.803 320.722 619.112 320.489L619.024 319.996C620.335 319.763 621.647 319.533 622.961 319.308L623.045 319.801C624.346 319.579 625.648 319.36 626.952 319.147L626.871 318.653C628.175 318.44 629.482 318.23 630.79 318.025L630.867 318.519C632.174 318.314 633.483 318.114 634.793 317.918L634.719 317.424C636.031 317.228 637.344 317.036 638.66 316.849L638.73 317.344C640.044 317.157 641.361 316.974 642.678 316.796L642.611 316.301C643.93 316.123 645.251 315.949 646.574 315.78L646.637 316.276C647.946 316.108 649.256 315.945 650.568 315.786L650.508 315.29C651.82 315.131 653.134 314.977 654.449 314.828L654.506 315.324C655.82 315.175 657.136 315.03 658.453 314.889L658.4 314.392C659.719 314.251 661.039 314.115 662.361 313.983L662.411 314.48C663.732 314.348 665.054 314.221 666.378 314.098L666.332 313.6C667.657 313.478 668.984 313.359 670.313 313.245L670.356 313.743C671.671 313.631 672.987 313.522 674.306 313.418L674.266 312.92C675.583 312.816 676.902 312.717 678.222 312.622L678.258 313.121C679.577 313.026 680.897 312.936 682.219 312.85L682.187 312.351C683.51 312.265 684.835 312.183 686.161 312.106L686.19 312.606C687.515 312.529 688.841 312.456 690.169 312.388L690.144 311.889C691.473 311.821 692.803 311.757 694.135 311.698L694.157 312.198C695.478 312.14 696.799 312.086 698.122 312.036L698.103 311.536C699.423 311.487 700.744 311.442 702.066 311.402L702.082 311.901C703.403 311.861 704.726 311.825 706.05 311.793L706.038 311.293C707.363 311.262 708.689 311.235 710.017 311.212L710.026 311.712C711.352 311.69 712.68 311.672 714.01 311.658L714.004 311.158C715.335 311.144 716.667 311.135 718 311.131L718.001 311.631C718.667 311.629 719.334 311.627 720 311.627C720.667 311.627 721.333 311.629 721.999 311.631L722.001 311.131C723.334 311.135 724.666 311.144 725.996 311.158L725.991 311.658C727.32 311.672 728.648 311.69 729.975 311.712L729.983 311.212C731.311 311.235 732.638 311.262 733.963 311.293L733.951 311.793C735.275 311.825 736.597 311.861 737.919 311.901L737.934 311.402C739.256 311.442 740.577 311.487 741.897 311.536L741.878 312.036C743.201 312.086 744.523 312.14 745.843 312.198L745.865 311.698C747.197 311.757 748.528 311.821 749.857 311.889L749.831 312.388C751.159 312.456 752.486 312.529 753.811 312.606L753.84 312.106C755.166 312.183 756.491 312.265 757.814 312.351L757.781 312.85C759.103 312.936 760.424 313.026 761.743 313.121L761.779 312.622C763.099 312.717 764.417 312.816 765.734 312.92L765.695 313.419C767.013 313.522 768.33 313.631 769.645 313.743L769.688 313.245C771.016 313.359 772.343 313.478 773.668 313.6L773.622 314.098C774.946 314.221 776.269 314.348 777.59 314.48L777.639 313.983C778.961 314.115 780.282 314.251 781.601 314.392L781.547 314.889C782.865 315.03 784.181 315.175 785.495 315.324L785.552 314.828C786.867 314.977 788.181 315.132 789.492 315.29L789.432 315.787C790.745 315.945 792.055 316.108 793.363 316.276L793.427 315.78C794.749 315.949 796.07 316.123 797.389 316.301L797.322 316.796C798.64 316.974 799.956 317.157 801.27 317.344L801.341 316.849C802.656 317.036 803.97 317.228 805.282 317.424L805.208 317.918C806.518 318.114 807.827 318.315 809.134 318.519L809.211 318.025C810.519 318.23 811.825 318.44 813.129 318.653L813.049 319.147C814.353 319.361 815.655 319.579 816.956 319.801L817.04 319.308C818.354 319.533 819.666 319.763 820.976 319.997L820.889 320.489C822.198 320.722 823.505 320.961 824.81 321.203L824.901 320.711C826.207 320.954 827.511 321.201 828.813 321.453L828.719 321.944C830.02 322.195 831.319 322.451 832.615 322.711L832.714 322.221C834.012 322.481 835.308 322.746 836.602 323.015L836.5 323.505C837.795 323.774 839.087 324.048 840.378 324.326L840.483 323.837C841.786 324.118 843.087 324.403 844.386 324.693L844.277 325.181C845.574 325.47 846.87 325.764 848.163 326.062L848.275 325.575C849.57 325.874 850.862 326.177 852.152 326.484L852.036 326.97C853.325 327.277 854.611 327.589 855.896 327.904L856.015 327.419C857.3 327.735 858.584 328.055 859.865 328.38L859.742 328.865C861.025 329.19 862.306 329.52 863.584 329.854L863.711 329.37C865 329.707 866.287 330.048 867.572 330.394L867.442 330.877C868.725 331.222 870.006 331.572 871.285 331.926L871.418 331.444C872.698 331.798 873.975 332.157 875.25 332.52L875.114 333.001C876.387 333.364 877.659 333.731 878.928 334.102L879.068 333.622C880.338 333.994 881.606 334.37 882.871 334.751L882.727 335.229C883.997 335.611 885.264 335.997 886.529 336.388L886.676 335.91C887.949 336.303 889.219 336.7 890.487 337.102L890.336 337.578C891.602 337.98 892.866 338.385 894.128 338.795L894.282 338.32C895.545 338.73 896.805 339.144 898.062 339.563L897.904 340.038C899.16 340.456 900.413 340.879 901.664 341.306L901.826 340.833C903.078 341.261 904.327 341.692 905.574 342.128L905.409 342.6C906.662 343.039 907.913 343.482 909.162 343.929L909.33 343.458C910.584 343.907 911.835 344.361 913.082 344.818L912.91 345.288C914.157 345.745 915.401 346.206 916.642 346.672L916.818 346.204C918.06 346.67 919.3 347.14 920.536 347.615L920.357 348.082C921.593 348.556 922.825 349.035 924.055 349.518L924.238 349.052C925.469 349.535 926.697 350.023 927.922 350.514L927.736 350.978C928.971 351.474 930.204 351.974 931.433 352.479L931.623 352.016C932.854 352.521 934.083 353.03 935.308 353.544L935.114 354.005C936.338 354.518 937.559 355.035 938.777 355.556L938.974 355.097C940.193 355.619 941.409 356.145 942.623 356.675L942.422 357.133C943.634 357.663 944.843 358.197 946.049 358.736L946.253 358.279C947.463 358.819 948.671 359.364 949.875 359.913L949.668 360.368C950.879 360.92 952.086 361.476 953.291 362.036L953.502 361.582C954.708 362.143 955.91 362.708 957.11 363.277L956.895 363.729C958.094 364.298 959.289 364.871 960.48 365.447L960.698 364.997C961.891 365.575 963.081 366.157 964.267 366.742L964.046 367.191C965.231 367.776 966.413 368.365 967.591 368.959L967.816 368.512C969.004 369.11 970.188 369.713 971.369 370.319L971.141 370.764C972.324 371.371 973.503 371.983 974.68 372.599L974.911 372.156C976.089 372.772 977.263 373.393 978.433 374.017L978.198 374.458C979.367 375.082 980.533 375.71 981.695 376.343L981.934 375.903C983.097 376.536 984.257 377.173 985.414 377.814L985.171 378.251C986.328 378.893 987.482 379.538 988.632 380.188L988.878 379.752C990.038 380.407 991.194 381.067 992.347 381.73L992.097 382.164C993.249 382.826 994.397 383.493 995.541 384.164L995.794 383.733C996.94 384.404 998.081 385.08 999.219 385.76L998.963 386.189C1000.1 386.868 1001.23 387.551 1002.36 388.238L1002.62 387.811C1003.75 388.499 1004.88 389.19 1006 389.886L1005.74 390.311C1006.87 391.01 1007.99 391.714 1009.11 392.421L1009.38 391.998C1010.51 392.709 1011.63 393.423 1012.75 394.141L1012.48 394.562C1013.59 395.28 1014.71 396.001 1015.82 396.727L1016.09 396.308C1017.2 397.035 1018.31 397.765 1019.41 398.499L1019.13 398.916C1020.23 399.649 1021.33 400.387 1022.42 401.128L1022.7 400.714C1023.8 401.458 1024.89 402.206 1025.98 402.957L1025.7 403.369C1026.79 404.125 1027.88 404.885 1028.97 405.649L1029.26 405.24C1030.34 406.005 1031.43 406.773 1032.51 407.546L1032.22 407.953C1033.29 408.725 1034.37 409.5 1035.44 410.28L1035.73 409.876C1036.8 410.657 1037.87 411.441 1038.93 412.229L1038.63 412.631C1039.7 413.418 1040.75 414.21 1041.81 415.005L1042.11 414.606C1043.17 415.408 1044.23 416.214 1045.28 417.024L1044.98 417.42C1046.03 418.23 1047.08 419.044 1048.12 419.862L1048.43 419.468C1049.48 420.287 1050.52 421.109 1051.56 421.936L1051.25 422.327C1052.28 423.152 1053.31 423.982 1054.34 424.815L1054.66 424.426C1055.68 425.26 1056.71 426.098 1057.73 426.94L1057.41 427.325C1058.43 428.17 1059.45 429.018 1060.46 429.869L1060.78 429.487C1061.8 430.343 1062.82 431.204 1063.83 432.068L1063.5 432.448C1064.51 433.311 1065.51 434.178 1066.51 435.049L1066.84 434.672C1067.84 435.543 1068.84 436.419 1069.83 437.298L1069.5 437.672C1070.49 438.55 1071.47 439.432 1072.45 440.318L1072.79 439.947C1073.77 440.835 1074.75 441.726 1075.72 442.622L1075.38 442.99C1076.36 443.89 1077.34 444.795 1078.31 445.702L1078.65 445.338C1079.62 446.246 1080.58 447.159 1081.54 448.076L1081.2 448.437C1082.16 449.353 1083.11 450.272 1084.06 451.194L1084.41 450.836C1085.36 451.759 1086.31 452.687 1087.25 453.618L1086.89 453.973C1087.83 454.903 1088.77 455.836 1089.7 456.773L1090.05 456.421C1090.99 457.366 1091.92 458.315 1092.85 459.267L1092.49 459.616C1093.42 460.568 1094.34 461.523 1095.26 462.482L1095.62 462.137C1096.53 463.097 1097.45 464.061 1098.35 465.028L1097.99 465.37C1098.89 466.336 1099.79 467.306 1100.69 468.279L1101.06 467.941C1101.95 468.915 1102.84 469.893 1103.73 470.875L1103.36 471.21C1104.25 472.195 1105.13 473.184 1106.01 474.176L1106.39 473.845C1107.27 474.841 1108.14 475.84 1109.01 476.843L1108.64 477.171C1109.51 478.172 1110.37 479.178 1111.23 480.186L1111.61 479.862C1112.47 480.872 1113.32 481.885 1114.17 482.902L1113.79 483.222C1114.64 484.238 1115.48 485.257 1116.32 486.279L1116.7 485.962C1117.54 486.99 1118.38 488.02 1119.21 489.054L1118.82 489.367C1119.65 490.404 1120.48 491.443 1121.3 492.486L1121.69 492.177C1122.51 493.221 1123.32 494.269 1124.13 495.32L1123.74 495.625C1124.55 496.675 1125.35 497.728 1126.15 498.784L1126.54 498.483C1127.34 499.541 1128.14 500.602 1128.92 501.667L1128.52 501.964C1129.31 503.029 1130.09 504.098 1130.86 505.17L1131.27 504.877C1132.05 505.955 1132.82 507.035 1133.59 508.12L1133.18 508.409C1133.95 509.491 1134.71 510.577 1135.46 511.667L1135.87 511.382C1136.63 512.473 1137.38 513.566 1138.12 514.664L1137.71 514.944C1138.45 516.04 1139.19 517.139 1139.92 518.241L1140.33 517.965C1141.07 519.07 1141.79 520.178 1142.51 521.289L1142.09 521.561C1142.81 522.676 1143.53 523.793 1144.24 524.914L1144.66 524.646C1145.37 525.768 1146.08 526.894 1146.78 528.022L1146.35 528.285C1147.05 529.412 1147.74 530.542 1148.42 531.675L1148.85 531.417C1149.54 532.551 1150.22 533.689 1150.89 534.83L1150.46 535.084C1151.13 536.224 1151.8 537.367 1152.46 538.513L1152.89 538.264C1153.55 539.415 1154.21 540.57 1154.86 541.728L1154.42 541.973C1155.07 543.129 1155.72 544.289 1156.35 545.451L1156.79 545.211C1157.43 546.375 1158.06 547.541 1158.68 548.711L1158.24 548.947C1158.86 550.115 1159.48 551.286 1160.09 552.46L1160.53 552.23C1161.15 553.406 1161.75 554.585 1162.35 555.767L1161.9 555.992C1162.5 557.176 1163.09 558.363 1163.68 559.552L1164.13 559.331C1164.71 560.522 1165.29 561.716 1165.87 562.913L1165.42 563.129C1165.99 564.324 1166.55 565.522 1167.11 566.722L1167.56 566.511C1168.12 567.714 1168.68 568.919 1169.22 570.127L1168.77 570.333C1169.31 571.539 1169.85 572.749 1170.38 573.96L1170.84 573.76C1171.37 574.975 1171.9 576.194 1172.42 577.415L1171.96 577.611C1172.48 578.83 1172.99 580.052 1173.49 581.277L1173.96 581.087C1174.46 582.313 1174.96 583.543 1175.45 584.775L1174.99 584.96C1175.48 586.19 1175.96 587.423 1176.44 588.659L1176.9 588.479C1177.38 589.716 1177.85 590.956 1178.31 592.198L1177.85 592.373C1178.31 593.614 1178.76 594.858 1179.21 596.104L1179.68 595.934C1180.13 597.182 1180.57 598.433 1181.01 599.686L1180.54 599.85C1180.97 601.101 1181.4 602.355 1181.82 603.612L1182.29 603.453C1182.71 604.711 1183.13 605.972 1183.53 607.235L1183.06 607.388C1183.46 608.649 1183.86 609.913 1184.25 611.179L1184.73 611.032C1185.12 612.298 1185.5 613.567 1185.88 614.838L1185.4 614.98C1185.78 616.249 1186.15 617.521 1186.51 618.795L1186.99 618.658C1187.35 619.934 1187.71 621.212 1188.05 622.493L1187.57 622.624C1187.92 623.902 1188.26 625.183 1188.59 626.467L1189.07 626.342C1189.4 627.627 1189.73 628.914 1190.05 630.204L1189.56 630.323C1189.88 631.607 1190.19 632.894 1190.49 634.182L1190.97 634.068C1191.28 635.358 1191.57 636.651 1191.86 637.945L1191.37 638.053C1191.66 639.346 1191.93 640.641 1192.21 641.937L1192.7 641.835C1192.97 643.134 1193.23 644.435 1193.49 645.738L1193 645.835C1193.25 647.136 1193.5 648.439 1193.74 649.744L1194.24 649.654C1194.48 650.955 1194.71 652.258 1194.93 653.564L1194.44 653.649C1194.67 654.952 1194.88 656.256 1195.09 657.563L1195.59 657.484C1195.8 658.793 1196 660.103 1196.19 661.416L1195.7 661.489C1195.89 662.8 1196.08 664.113 1196.26 665.427L1196.76 665.36C1196.94 666.676 1197.11 667.995 1197.27 669.315L1196.78 669.377C1196.94 670.688 1197.09 672.001 1197.24 673.315L1197.74 673.259C1197.89 674.574 1198.03 675.89 1198.16 677.208L1197.66 677.258C1197.79 678.575 1197.92 679.893 1198.03 681.213L1198.53 681.169C1198.65 682.49 1198.76 683.814 1198.86 685.139L1198.36 685.178C1198.46 686.501 1198.56 687.826 1198.64 689.153L1199.14 689.121C1199.23 690.441 1199.3 691.763 1199.37 693.087L1198.88 693.113C1198.94 694.431 1199.01 695.75 1199.06 697.071L1199.56 697.051C1199.62 698.374 1199.66 699.698 1199.7 701.024L1199.2 701.039C1199.24 702.363 1199.27 703.689 1199.29 705.016L1199.79 705.008Z" stroke="white" stroke-dasharray="4 4"/>
<path opacity="0.2" d="M1058.68 711C1058.68 866.746 907.137 993.15 720 993.15C532.863 993.15 381.32 866.746 381.32 711C381.32 555.255 532.863 428.85 720 428.85C907.137 428.85 1058.68 555.255 1058.68 711Z" stroke="white"/>
<path d="M326.42 322.083C326.42 327.776 320.847 332.538 313.773 332.538C306.7 332.538 301.127 327.776 301.127 322.083C301.127 316.39 306.7 311.627 313.773 311.627C320.847 311.627 326.42 316.39 326.42 322.083Z" stroke="#7CBDB3"/>
<path d="M318.532 322.083C318.532 324.145 316.491 325.965 313.773 325.965C311.056 325.965 309.015 324.145 309.015 322.083C309.015 320.02 311.056 318.201 313.773 318.201C316.491 318.201 318.532 320.02 318.532 322.083Z" fill="#7CBDB3" stroke="#7CBDB3"/>
</g>
</g>
<defs>
<filter id="filter0_f_1_198" x="-307.2" y="-254" width="2058" height="1893" filterUnits="userSpaceOnUse" color-interpolation-filters="sRGB">
<feFlood flood-opacity="0" result="BackgroundImageFix"/>
<feBlend mode="normal" in="SourceGraphic" in2="BackgroundImageFix" result="shape"/>
<feGaussianBlur stdDeviation="267" result="effect1_foregroundBlur_1_198"/>
</filter>
<filter id="filter1_f_1_198" x="156.4" y="184" width="1130.8" height="1017" filterUnits="userSpaceOnUse" color-interpolation-filters="sRGB">
<feFlood flood-opacity="0" result="BackgroundImageFix"/>
<feBlend mode="normal" in="SourceGraphic" in2="BackgroundImageFix" result="shape"/>
<feGaussianBlur stdDeviation="112" result="effect1_foregroundBlur_1_198"/>
</filter>
</defs>
</svg>
