<svg width="16" height="17" viewBox="0 0 16 17" fill="none" xmlns="http://www.w3.org/2000/svg">
<path d="M13.8668 5.6975C14.5607 7.14863 14.6924 8.80533 14.2366 10.3479C13.7807 11.8904 12.7697 13.2094 11.3986 14.0503C10.0274 14.8912 8.39339 15.1944 6.81183 14.9014C5.23028 14.6084 3.81332 13.74 2.83442 12.4637C1.85553 11.1874 1.3841 9.59372 1.51111 7.99027C1.63813 6.38683 2.35459 4.88727 3.52222 3.78101C4.68984 2.67474 6.22586 2.0402 7.83383 1.99985C9.44179 1.9595 11.0077 2.5162 12.2293 3.5625L13.6462 2.145C13.74 2.05118 13.8673 1.99848 14 1.99848C14.1327 1.99848 14.2599 2.05118 14.3537 2.145C14.4475 2.23882 14.5002 2.36607 14.5002 2.49875C14.5002 2.63144 14.4475 2.75868 14.3537 2.8525L8.35372 8.8525C8.2599 8.94633 8.13265 8.99903 7.99997 8.99903C7.86729 8.99903 7.74004 8.94633 7.64622 8.8525C7.5524 8.75868 7.49969 8.63144 7.49969 8.49875C7.49969 8.36607 7.5524 8.23882 7.64622 8.145L9.37872 6.4125C8.90919 6.10198 8.3486 5.959 7.7877 6.00672C7.2268 6.05444 6.69842 6.29007 6.2881 6.67546C5.87778 7.06084 5.60954 7.57343 5.52679 8.13024C5.44405 8.68705 5.55165 9.2555 5.83217 9.74355C6.11269 10.2316 6.54972 10.6107 7.0725 10.8194C7.59529 11.0282 8.17323 11.0544 8.71277 10.8939C9.25231 10.7333 9.72186 10.3953 10.0454 9.93466C10.369 9.47401 10.5276 8.91765 10.4956 8.35563C10.4919 8.28997 10.5012 8.22422 10.5229 8.16215C10.5446 8.10007 10.5783 8.04288 10.6222 7.99384C10.666 7.9448 10.719 7.90487 10.7783 7.87633C10.8375 7.84779 10.9018 7.8312 10.9675 7.8275C11.1001 7.82005 11.2302 7.86557 11.3293 7.95406C11.3783 7.99788 11.4182 8.05093 11.4468 8.11018C11.4753 8.16943 11.4919 8.23372 11.4956 8.29938C11.5412 9.09487 11.314 9.8821 10.8515 10.531C10.3891 11.1798 9.71908 11.6515 8.95226 11.868C8.18544 12.0844 7.36771 12.0328 6.63421 11.7216C5.90072 11.4103 5.29538 10.8581 4.91823 10.1563C4.54109 9.45439 4.41472 8.64483 4.56001 7.86139C4.7053 7.07796 5.11356 6.36755 5.71731 5.84758C6.32105 5.32762 7.08415 5.02921 7.88046 5.0017C8.67678 4.97418 9.45865 5.2192 10.0968 5.69625L11.5187 4.27438C10.4767 3.40925 9.15183 2.95961 7.7985 3.0118C6.44518 3.064 5.15886 3.61436 4.18659 4.55717C3.21432 5.49999 2.62466 6.76878 2.53087 8.11985C2.43708 9.47093 2.84577 10.809 3.67845 11.8771C4.51112 12.9453 5.70906 13.6681 7.04219 13.9067C8.37532 14.1454 9.74964 13.8832 10.9012 13.1703C12.0527 12.4575 12.9003 11.3443 13.2811 10.0446C13.6619 8.7449 13.5491 7.35034 12.9643 6.12875C12.9072 6.00908 12.8999 5.87158 12.944 5.74652C12.9882 5.62145 13.0803 5.51907 13.2 5.46188C13.3196 5.40469 13.4571 5.39739 13.5822 5.44158C13.7073 5.48577 13.8097 5.57783 13.8668 5.6975Z" fill="white"/>
</svg>
